<?xml version="1.0" encoding="utf-8"?>
<!-- Svg Vector Icons : http://www.onlinewebfonts.com/icon -->
<!DOCTYPE svg PUBLIC "-//W3C//DTD SVG 1.1//EN" "http://www.w3.org/Graphics/SVG/1.1/DTD/svg11.dtd">
<svg version="1.1" xmlns="http://www.w3.org/2000/svg" xmlns:xlink="http://www.w3.org/1999/xlink" x="0px" y="0px" viewBox="0 0 256 256" enable-background="new 0 0 256 256" xml:space="preserve">
<metadata> Svg Vector Icons : http://www.onlinewebfonts.com/icon </metadata>
<g><g><path fill="#000000" d="M128,246c-64.9,0-118-53.1-118-118C10,63.1,63.1,10,128,10c64.9,0,118,53.1,118,118C246,192.9,192.9,246,128,246z M128,17.9C67.4,17.9,17.9,67.4,17.9,128c0,60.6,49.5,110.1,110.1,110.1c60.6,0,110.1-49.5,110.1-110.1C238.1,67.4,188.6,17.9,128,17.9z"/><path fill="#000000" d="M141.5,191.7h-27.3c-25.7,0-45.9,0-45.9-13.1v-2.7c0-24.9,20.6-45.2,45.9-45.2h27.3c25.3,0,45.9,20.2,45.9,45.2v2.8C187.4,191.7,166,191.7,141.5,191.7L141.5,191.7z M126.8,127.6c-19.8,0-36.4-15.8-36.4-35.6c0-19.8,16.2-35.6,36.4-35.6c19.8,0,36.4,15.8,36.4,35.6C162.8,111.8,146.6,127.6,126.8,127.6L126.8,127.6z"/></g></g>
</svg>